<svg width="17" height="17" viewBox="0 0 17 17" fill="none" xmlns="http://www.w3.org/2000/svg">
<path opacity="0.8" d="M15.2812 15.9062V15.875C15.2188 16.1875 15.0312 16.4688 14.7812 16.6875C14.5312 16.875 14.2188 17 13.875 17C11.3438 17 9 16.3438 6.875 15.0938C4.75 13.8438 3.09375 12.1875 1.90625 10.125C0.625 7.9375 0 5.59375 0 3.09375C0 2.75 0.09375 2.4375 0.3125 2.1875C0.5 1.9375 0.78125 1.78125 1.125 1.71875L4.0625 1.03125C4.375 0.9375 4.71875 0.96875 5.03125 1.125C5.34375 1.28125 5.5625 1.53125 5.6875 1.875L7.0625 5.03125C7.1875 5.3125 7.1875 5.625 7.125 5.9375C7.03125 6.25 6.875 6.5 6.65625 6.71875L5.40625 7.71875C6.28125 9.40625 7.59375 10.6875 9.28125 11.625L10.2812 10.375C10.4688 10.125 10.75 9.9375 11.0625 9.875C11.375 9.8125 11.6562 9.84375 11.9688 9.96875L15.125 11.3125C15.4375 11.4375 15.6875 11.6562 15.8438 11.9688C16 12.2812 16.0312 12.5938 15.9688 12.9375L15.2812 15.9062ZM1.5 3.15625C1.5 5.375 2.0625 7.4375 3.1875 9.375C4.28125 11.2188 5.75 12.6875 7.625 13.8125C9.53125 14.9375 11.5938 15.5 13.8438 15.5L14.5 12.6562L11.4062 11.3438L9.6875 13.4688C8.125 12.75 6.90625 11.9375 6 11C5.0625 10.0625 4.25 8.84375 3.53125 7.3125L5.65625 5.59375L4.34375 2.5L1.5 3.15625Z" fill="#716C80"/>
</svg>
